<svg xmlns="http://www.w3.org/2000/svg" xmlns:xlink="http://www.w3.org/1999/xlink" width="330" zoomAndPan="magnify" viewBox="0 0 247.5 227.249992" height="303" preserveAspectRatio="xMidYMid meet" version="1.0"><path fill="#f5f5f5" d="M 223.59375 197.261719 C 223.59375 197.351562 223.554688 197.445312 223.476562 197.539062 C 223.398438 197.632812 223.28125 197.726562 223.121094 197.816406 C 222.964844 197.910156 222.769531 198.003906 222.535156 198.097656 C 222.300781 198.1875 222.03125 198.28125 221.71875 198.371094 C 221.40625 198.460938 221.054688 198.554688 220.667969 198.644531 C 220.28125 198.734375 219.855469 198.824219 219.390625 198.914062 C 218.925781 199.003906 218.425781 199.089844 217.886719 199.179688 C 217.351562 199.265625 216.773438 199.355469 216.164062 199.441406 C 215.550781 199.527344 214.90625 199.613281 214.222656 199.695312 C 213.539062 199.78125 212.820312 199.863281 212.070312 199.945312 C 211.316406 200.027344 210.527344 200.109375 209.707031 200.1875 C 208.886719 200.269531 208.03125 200.347656 207.144531 200.425781 C 206.257812 200.503906 205.339844 200.578125 204.386719 200.652344 C 203.433594 200.730469 202.453125 200.800781 201.441406 200.875 C 200.425781 200.945312 199.382812 201.015625 198.3125 201.085938 C 197.238281 201.15625 196.136719 201.222656 195.007812 201.289062 C 193.878906 201.355469 192.722656 201.417969 191.539062 201.480469 C 190.355469 201.542969 189.144531 201.605469 187.910156 201.664062 C 186.675781 201.722656 185.417969 201.78125 184.136719 201.835938 C 182.851562 201.890625 181.546875 201.945312 180.21875 201.996094 C 178.890625 202.050781 177.542969 202.097656 176.171875 202.148438 C 174.800781 202.195312 173.414062 202.242188 172.003906 202.285156 C 170.59375 202.328125 169.167969 202.371094 167.726562 202.410156 C 166.28125 202.449219 164.820312 202.488281 163.34375 202.523438 C 161.871094 202.558594 160.378906 202.59375 158.875 202.625 C 157.371094 202.65625 155.855469 202.683594 154.328125 202.710938 C 152.800781 202.738281 151.261719 202.765625 149.710938 202.785156 C 148.160156 202.808594 146.605469 202.832031 145.035156 202.847656 C 143.46875 202.867188 141.898438 202.882812 140.316406 202.894531 C 138.738281 202.910156 137.152344 202.921875 135.5625 202.929688 C 133.972656 202.941406 132.382812 202.945312 130.785156 202.949219 C 129.191406 202.957031 127.59375 202.957031 125.996094 202.957031 C 124.398438 202.957031 122.804688 202.957031 121.207031 202.949219 C 119.613281 202.945312 118.019531 202.941406 116.429688 202.929688 C 114.839844 202.921875 113.257812 202.910156 111.675781 202.894531 C 110.097656 202.882812 108.523438 202.867188 106.957031 202.847656 C 105.390625 202.832031 103.832031 202.808594 102.285156 202.785156 C 100.734375 202.765625 99.195312 202.738281 97.667969 202.710938 C 96.136719 202.683594 94.621094 202.65625 93.117188 202.625 C 91.613281 202.59375 90.125 202.558594 88.648438 202.523438 C 87.171875 202.488281 85.714844 202.449219 84.269531 202.410156 C 82.824219 202.371094 81.398438 202.328125 79.992188 202.285156 C 78.582031 202.242188 77.191406 202.195312 75.824219 202.148438 C 74.453125 202.097656 73.105469 202.050781 71.777344 201.996094 C 70.449219 201.945312 69.140625 201.890625 67.859375 201.835938 C 66.578125 201.78125 65.316406 201.722656 64.082031 201.664062 C 62.847656 201.605469 61.640625 201.542969 60.457031 201.480469 C 59.273438 201.417969 58.117188 201.355469 56.988281 201.289062 C 55.855469 201.222656 54.757812 201.15625 53.683594 201.085938 C 52.609375 201.015625 51.566406 200.945312 50.554688 200.875 C 49.542969 200.800781 48.558594 200.730469 47.605469 200.652344 C 46.65625 200.578125 45.738281 200.503906 44.847656 200.425781 C 43.960938 200.347656 43.109375 200.269531 42.285156 200.1875 C 41.464844 200.109375 40.679688 200.027344 39.925781 199.945312 C 39.171875 199.863281 38.453125 199.78125 37.773438 199.695312 C 37.089844 199.613281 36.441406 199.527344 35.832031 199.441406 C 35.21875 199.355469 34.644531 199.265625 34.105469 199.179688 C 33.566406 199.089844 33.066406 199.003906 32.605469 198.914062 C 32.140625 198.824219 31.714844 198.734375 31.324219 198.644531 C 30.9375 198.554688 30.589844 198.460938 30.277344 198.371094 C 29.964844 198.28125 29.691406 198.1875 29.457031 198.097656 C 29.222656 198.003906 29.027344 197.910156 28.871094 197.816406 C 28.714844 197.726562 28.597656 197.632812 28.519531 197.539062 C 28.441406 197.445312 28.402344 197.351562 28.402344 197.261719 C 28.402344 197.167969 28.441406 197.074219 28.519531 196.980469 C 28.597656 196.886719 28.714844 196.792969 28.871094 196.703125 C 29.027344 196.609375 29.222656 196.515625 29.457031 196.421875 C 29.691406 196.332031 29.964844 196.238281 30.277344 196.148438 C 30.589844 196.058594 30.9375 195.964844 31.324219 195.875 C 31.714844 195.785156 32.140625 195.695312 32.605469 195.605469 C 33.066406 195.515625 33.566406 195.429688 34.105469 195.339844 C 34.644531 195.253906 35.21875 195.164062 35.832031 195.078125 C 36.441406 194.992188 37.089844 194.90625 37.773438 194.824219 C 38.453125 194.738281 39.171875 194.65625 39.925781 194.574219 C 40.679688 194.492188 41.464844 194.410156 42.285156 194.332031 C 43.109375 194.25 43.960938 194.171875 44.847656 194.09375 C 45.738281 194.015625 46.65625 193.941406 47.605469 193.867188 C 48.558594 193.789062 49.542969 193.71875 50.554688 193.644531 C 51.566406 193.574219 52.609375 193.503906 53.683594 193.433594 C 54.757812 193.363281 55.855469 193.296875 56.988281 193.230469 C 58.117188 193.164062 59.273438 193.101562 60.457031 193.039062 C 61.640625 192.976562 62.847656 192.914062 64.082031 192.855469 C 65.316406 192.796875 66.578125 192.738281 67.859375 192.683594 C 69.140625 192.628906 70.449219 192.574219 71.777344 192.523438 C 73.105469 192.46875 74.453125 192.421875 75.824219 192.371094 C 77.191406 192.324219 78.582031 192.277344 79.992188 192.234375 C 81.398438 192.191406 82.824219 192.148438 84.269531 192.109375 C 85.714844 192.070312 87.171875 192.03125 88.648438 191.996094 C 90.125 191.960938 91.613281 191.925781 93.117188 191.894531 C 94.621094 191.863281 96.136719 191.835938 97.667969 191.808594 C 99.195312 191.78125 100.734375 191.753906 102.285156 191.734375 C 103.832031 191.710938 105.390625 191.6875 106.957031 191.671875 C 108.523438 191.652344 110.097656 191.636719 111.675781 191.625 C 113.257812 191.609375 114.839844 191.597656 116.429688 191.589844 C 118.019531 191.582031 119.613281 191.574219 121.207031 191.570312 C 122.804688 191.5625 124.398438 191.5625 125.996094 191.5625 C 127.59375 191.5625 129.191406 191.5625 130.785156 191.570312 C 132.382812 191.574219 133.972656 191.582031 135.5625 191.589844 C 137.152344 191.597656 138.738281 191.609375 140.316406 191.625 C 141.898438 191.636719 143.46875 191.652344 145.035156 191.671875 C 146.605469 191.6875 148.160156 191.710938 149.710938 191.734375 C 151.261719 191.753906 152.800781 191.78125 154.328125 191.808594 C 155.855469 191.835938 157.371094 191.863281 158.875 191.894531 C 160.378906 191.925781 161.871094 191.960938 163.34375 191.996094 C 164.820312 192.03125 166.28125 192.070312 167.726562 192.109375 C 169.167969 192.148438 170.59375 192.191406 172.003906 192.234375 C 173.414062 192.277344 174.800781 192.324219 176.171875 192.371094 C 177.542969 192.421875 178.890625 192.46875 180.21875 192.523438 C 181.546875 192.574219 182.851562 192.628906 184.136719 192.683594 C 185.417969 192.738281 186.675781 192.796875 187.910156 192.855469 C 189.144531 192.914062 190.355469 192.976562 191.539062 193.039062 C 192.722656 193.101562 193.878906 193.164062 195.007812 193.230469 C 196.136719 193.296875 197.238281 193.363281 198.3125 193.433594 C 199.382812 193.503906 200.425781 193.574219 201.441406 193.644531 C 202.453125 193.71875 203.433594 193.789062 204.386719 193.867188 C 205.339844 193.941406 206.257812 194.015625 207.144531 194.09375 C 208.03125 194.171875 208.886719 194.25 209.707031 194.332031 C 210.527344 194.410156 211.316406 194.492188 212.070312 194.574219 C 212.820312 194.65625 213.539062 194.738281 214.222656 194.824219 C 214.90625 194.90625 215.550781 194.992188 216.164062 195.078125 C 216.773438 195.164062 217.351562 195.253906 217.886719 195.339844 C 218.425781 195.429688 218.925781 195.515625 219.390625 195.605469 C 219.855469 195.695312 220.28125 195.785156 220.667969 195.875 C 221.054688 195.964844 221.40625 196.058594 221.71875 196.148438 C 222.03125 196.238281 222.300781 196.332031 222.535156 196.421875 C 222.769531 196.515625 222.964844 196.609375 223.121094 196.703125 C 223.28125 196.792969 223.398438 196.886719 223.476562 196.980469 C 223.554688 197.074219 223.59375 197.167969 223.59375 197.261719 Z M 223.59375 197.261719 " fill-opacity="1" fill-rule="nonzero"/><path fill="#5ab4a8" d="M 125.976562 169.480469 L 54.5 169.480469 L 50.589844 54.527344 L 122.066406 54.527344 Z M 125.976562 169.480469 " fill-opacity="1" fill-rule="nonzero"/><path fill="#5ab4a8" d="M 129.546875 165.910156 L 58.070312 165.910156 L 54.152344 50.960938 L 125.628906 50.960938 Z M 129.546875 165.910156 " fill-opacity="1" fill-rule="nonzero"/><path fill="#ffffff" d="M 129.546875 165.910156 L 58.070312 165.910156 L 54.152344 50.960938 L 125.628906 50.960938 Z M 129.546875 165.910156 " fill-opacity="0.298" fill-rule="nonzero"/><path fill="#5ab4a8" d="M 104.871094 69.828125 C 105.347656 70.296875 105.800781 70.789062 106.234375 71.300781 C 106.664062 71.8125 107.070312 72.34375 107.449219 72.894531 C 107.828125 73.445312 108.179688 74.011719 108.507812 74.597656 C 108.832031 75.179688 109.128906 75.777344 109.394531 76.386719 C 109.664062 77 109.902344 77.621094 110.109375 78.25 C 110.316406 78.882812 110.492188 79.523438 110.636719 80.167969 C 110.78125 80.816406 110.894531 81.46875 110.976562 82.125 C 111.058594 82.777344 111.105469 83.4375 111.125 84.09375 C 111.140625 84.753906 111.125 85.410156 111.078125 86.066406 C 111.03125 86.71875 110.949219 87.367188 110.835938 88.015625 C 110.726562 88.660156 110.582031 89.296875 110.40625 89.921875 C 110.230469 90.550781 110.027344 91.167969 109.789062 91.777344 C 109.554688 92.382812 109.289062 92.972656 108.992188 93.550781 C 108.695312 94.128906 108.371094 94.691406 108.019531 95.234375 C 107.667969 95.78125 107.289062 96.304688 106.886719 96.8125 C 106.480469 97.316406 106.050781 97.800781 105.597656 98.261719 C 105.144531 98.722656 104.667969 99.160156 104.167969 99.574219 C 103.671875 99.988281 103.152344 100.375 102.613281 100.734375 C 102.074219 101.097656 101.519531 101.429688 100.945312 101.734375 C 100.375 102.042969 99.785156 102.316406 99.183594 102.566406 C 98.582031 102.8125 97.96875 103.027344 97.34375 103.214844 C 96.71875 103.398438 96.082031 103.554688 95.441406 103.675781 C 94.796875 103.800781 94.148438 103.890625 93.496094 103.949219 C 92.84375 104.007812 92.1875 104.035156 91.527344 104.03125 C 90.867188 104.023438 90.210938 103.988281 89.554688 103.917969 C 88.894531 103.847656 88.242188 103.746094 87.59375 103.609375 C 86.945312 103.476562 86.300781 103.3125 85.667969 103.113281 C 85.03125 102.917969 84.40625 102.691406 83.792969 102.433594 C 83.175781 102.175781 82.574219 101.890625 81.984375 101.574219 C 81.398438 101.261719 80.824219 100.917969 80.265625 100.546875 C 79.710938 100.175781 79.171875 99.78125 78.652344 99.359375 C 78.132812 98.9375 77.632812 98.488281 77.15625 98.019531 C 76.679688 97.550781 76.222656 97.058594 75.792969 96.546875 C 75.363281 96.035156 74.957031 95.503906 74.578125 94.953125 C 74.195312 94.402344 73.84375 93.835938 73.519531 93.25 C 73.191406 92.667969 72.898438 92.070312 72.628906 91.460938 C 72.363281 90.851562 72.125 90.230469 71.917969 89.597656 C 71.710938 88.964844 71.53125 88.328125 71.386719 87.679688 C 71.242188 87.03125 71.128906 86.382812 71.046875 85.726562 C 70.96875 85.070312 70.917969 84.414062 70.902344 83.753906 C 70.882812 83.09375 70.898438 82.4375 70.949219 81.785156 C 70.996094 81.128906 71.074219 80.480469 71.1875 79.835938 C 71.300781 79.191406 71.441406 78.554688 71.617188 77.925781 C 71.792969 77.296875 72 76.679688 72.234375 76.074219 C 72.472656 75.46875 72.738281 74.875 73.035156 74.296875 C 73.328125 73.71875 73.652344 73.15625 74.003906 72.613281 C 74.355469 72.070312 74.734375 71.542969 75.140625 71.039062 C 75.546875 70.53125 75.972656 70.050781 76.429688 69.585938 C 76.882812 69.125 77.359375 68.6875 77.855469 68.273438 C 78.355469 67.859375 78.875 67.472656 79.410156 67.113281 C 79.949219 66.75 80.503906 66.417969 81.078125 66.113281 C 81.652344 65.808594 82.238281 65.53125 82.839844 65.285156 C 83.445312 65.039062 84.058594 64.820312 84.683594 64.636719 C 85.308594 64.449219 85.941406 64.296875 86.585938 64.171875 C 87.226562 64.050781 87.875 63.957031 88.53125 63.898438 C 89.183594 63.839844 89.839844 63.8125 90.5 63.820312 C 91.15625 63.824219 91.816406 63.863281 92.472656 63.933594 C 93.128906 64.003906 93.78125 64.105469 94.433594 64.238281 C 95.082031 64.371094 95.722656 64.539062 96.359375 64.734375 C 96.992188 64.929688 97.617188 65.15625 98.234375 65.414062 C 98.847656 65.671875 99.449219 65.957031 100.039062 66.273438 C 100.628906 66.589844 101.203125 66.929688 101.757812 67.300781 C 102.316406 67.671875 102.855469 68.070312 103.375 68.492188 C 103.894531 68.914062 104.390625 69.359375 104.871094 69.828125 Z M 104.871094 69.828125 " fill-opacity="1" fill-rule="nonzero"/><path fill="#ffffff" d="M 107.609375 83.929688 C 107.714844 86.714844 107.136719 89.347656 105.871094 91.832031 C 105.203125 93.148438 104.367188 94.347656 103.359375 95.429688 C 102.355469 96.515625 101.222656 97.441406 99.960938 98.207031 C 98.699219 98.976562 97.355469 99.554688 95.929688 99.949219 C 94.503906 100.339844 93.054688 100.53125 91.578125 100.519531 C 90.066406 100.511719 88.582031 100.308594 87.121094 99.910156 C 85.664062 99.511719 84.28125 98.929688 82.976562 98.167969 C 81.667969 97.40625 80.484375 96.488281 79.421875 95.414062 C 78.355469 94.339844 77.449219 93.144531 76.699219 91.832031 C 75.277344 89.386719 74.519531 86.753906 74.421875 83.929688 C 74.398438 83.390625 74.402344 82.855469 74.433594 82.316406 C 74.46875 81.777344 74.523438 81.246094 74.609375 80.710938 C 74.695312 80.179688 74.808594 79.65625 74.949219 79.136719 C 75.085938 78.617188 75.25 78.105469 75.441406 77.601562 C 75.632812 77.097656 75.847656 76.605469 76.089844 76.121094 C 76.328125 75.640625 76.59375 75.171875 76.882812 74.71875 C 77.171875 74.265625 77.480469 73.824219 77.8125 73.402344 C 78.144531 72.976562 78.5 72.574219 78.875 72.1875 C 79.246094 71.796875 79.640625 71.429688 80.050781 71.082031 C 80.460938 70.734375 80.890625 70.410156 81.332031 70.105469 C 81.777344 69.800781 82.234375 69.519531 82.707031 69.261719 C 83.179688 69.003906 83.664062 68.769531 84.160156 68.5625 C 84.65625 68.355469 85.164062 68.171875 85.679688 68.015625 C 86.191406 67.855469 86.714844 67.726562 87.242188 67.621094 C 87.769531 67.515625 88.300781 67.4375 88.839844 67.386719 C 89.375 67.335938 89.910156 67.3125 90.449219 67.316406 C 91.550781 67.324219 92.644531 67.4375 93.722656 67.65625 C 94.804688 67.871094 95.851562 68.1875 96.871094 68.605469 C 97.894531 69.019531 98.863281 69.53125 99.785156 70.132812 C 100.707031 70.734375 101.566406 71.421875 102.355469 72.1875 C 103.148438 72.953125 103.859375 73.785156 104.492188 74.6875 C 105.125 75.589844 105.664062 76.546875 106.117188 77.550781 C 106.566406 78.558594 106.914062 79.597656 107.167969 80.667969 C 107.417969 81.742188 107.566406 82.828125 107.609375 83.929688 Z M 107.609375 83.929688 " fill-opacity="1" fill-rule="nonzero"/><path fill="#5ab4a8" d="M 105.863281 91.832031 C 105.191406 93.148438 104.355469 94.347656 103.351562 95.429688 C 102.347656 96.515625 101.210938 97.441406 99.949219 98.207031 C 98.6875 98.976562 97.34375 99.554688 95.917969 99.949219 C 94.496094 100.339844 93.042969 100.53125 91.566406 100.519531 C 90.054688 100.511719 88.570312 100.308594 87.113281 99.910156 C 85.652344 99.511719 84.269531 98.929688 82.964844 98.167969 C 81.660156 97.40625 80.472656 96.488281 79.410156 95.414062 C 78.347656 94.339844 77.4375 93.144531 76.6875 91.832031 C 78.816406 90.378906 81.113281 89.277344 83.574219 88.523438 C 86.039062 87.769531 88.558594 87.398438 91.132812 87.40625 C 93.753906 87.414062 96.316406 87.792969 98.820312 88.546875 C 101.328125 89.296875 103.675781 90.394531 105.863281 91.832031 Z M 105.863281 91.832031 " fill-opacity="0.6" fill-rule="nonzero"/><path fill="#5ab4a8" d="M 95.917969 73.058594 C 96.269531 73.40625 96.585938 73.78125 96.863281 74.1875 C 97.144531 74.59375 97.382812 75.023438 97.582031 75.472656 C 97.777344 75.921875 97.929688 76.386719 98.039062 76.863281 C 98.144531 77.339844 98.203125 77.820312 98.214844 78.304688 C 98.230469 78.792969 98.195312 79.273438 98.109375 79.746094 C 98.027344 80.222656 97.898438 80.683594 97.726562 81.128906 C 97.550781 81.578125 97.335938 82 97.074219 82.402344 C 96.816406 82.804688 96.519531 83.175781 96.183594 83.515625 C 95.847656 83.855469 95.484375 84.160156 95.085938 84.425781 C 94.691406 84.691406 94.269531 84.914062 93.824219 85.097656 C 93.382812 85.28125 92.921875 85.414062 92.449219 85.507812 C 91.976562 85.597656 91.496094 85.640625 91.011719 85.636719 C 90.523438 85.632812 90.042969 85.582031 89.5625 85.480469 C 89.085938 85.382812 88.621094 85.238281 88.164062 85.050781 C 87.710938 84.859375 87.28125 84.628906 86.871094 84.355469 C 86.460938 84.082031 86.078125 83.773438 85.726562 83.425781 C 85.375 83.082031 85.058594 82.703125 84.777344 82.296875 C 84.496094 81.890625 84.257812 81.464844 84.0625 81.015625 C 83.863281 80.566406 83.710938 80.101562 83.605469 79.625 C 83.5 79.148438 83.4375 78.667969 83.425781 78.179688 C 83.414062 77.695312 83.449219 77.214844 83.53125 76.738281 C 83.613281 76.265625 83.742188 75.804688 83.917969 75.355469 C 84.089844 74.910156 84.308594 74.484375 84.566406 74.082031 C 84.828125 73.683594 85.125 73.3125 85.457031 72.972656 C 85.792969 72.632812 86.160156 72.328125 86.554688 72.0625 C 86.953125 71.796875 87.371094 71.570312 87.816406 71.390625 C 88.261719 71.207031 88.71875 71.070312 89.191406 70.980469 C 89.667969 70.890625 90.148438 70.847656 90.632812 70.851562 C 91.117188 70.855469 91.601562 70.90625 92.078125 71.003906 C 92.558594 71.101562 93.023438 71.246094 93.476562 71.4375 C 93.929688 71.625 94.363281 71.859375 94.773438 72.132812 C 95.183594 72.402344 95.566406 72.714844 95.917969 73.058594 Z M 95.917969 73.058594 " fill-opacity="0.6" fill-rule="nonzero"/><path fill="#ffffff" d="M 115.183594 124.28125 L 69.589844 124.28125 L 69.285156 115.222656 L 114.878906 115.222656 Z M 115.183594 124.28125 " fill-opacity="1" fill-rule="nonzero"/><path fill="#ffffff" d="M 115.738281 140.476562 L 70.140625 140.476562 L 69.832031 131.414062 L 115.433594 131.414062 Z M 115.738281 140.476562 " fill-opacity="1" fill-rule="nonzero"/><path fill="#5ab4a8" d="M 98.140625 132.664062 L 87.152344 134.175781 C 86.929688 134.199219 86.753906 134.300781 86.621094 134.480469 C 86.492188 134.660156 86.445312 134.859375 86.488281 135.082031 L 87.933594 142.445312 C 87.980469 142.667969 88.101562 142.847656 88.289062 142.980469 C 88.476562 143.109375 88.683594 143.164062 88.910156 143.132812 L 99.898438 141.625 C 100.117188 141.597656 100.292969 141.492188 100.425781 141.3125 C 100.554688 141.128906 100.601562 140.929688 100.558594 140.710938 L 99.117188 133.347656 C 99.070312 133.125 98.949219 132.949219 98.761719 132.816406 C 98.574219 132.683594 98.367188 132.632812 98.140625 132.664062 Z M 94.984375 140.125 L 92.972656 140.390625 L 92.777344 138.015625 C 92.328125 137.820312 92.054688 137.484375 91.957031 137.007812 C 91.917969 136.835938 91.917969 136.660156 91.953125 136.488281 C 91.988281 136.3125 92.058594 136.15625 92.164062 136.011719 C 92.265625 135.867188 92.394531 135.75 92.546875 135.660156 C 92.703125 135.570312 92.867188 135.515625 93.042969 135.496094 C 93.222656 135.476562 93.398438 135.484375 93.574219 135.527344 C 93.746094 135.570312 93.910156 135.644531 94.054688 135.75 C 94.203125 135.851562 94.328125 135.980469 94.425781 136.128906 C 94.527344 136.28125 94.59375 136.445312 94.632812 136.621094 C 94.730469 137.085938 94.597656 137.476562 94.242188 137.792969 Z M 94.984375 140.125 " fill-opacity="1" fill-rule="nonzero"/><path fill="#5ab4a8" d="M 97.054688 132.265625 C 96.851562 132.292969 96.667969 132.246094 96.503906 132.128906 C 96.335938 132.011719 96.230469 131.855469 96.1875 131.65625 L 96.046875 130.9375 C 95.945312 130.445312 95.761719 129.988281 95.496094 129.5625 C 95.230469 129.140625 94.898438 128.777344 94.496094 128.472656 C 94.097656 128.167969 93.660156 127.945312 93.179688 127.800781 C 92.699219 127.65625 92.207031 127.601562 91.707031 127.636719 C 91.457031 127.648438 91.207031 127.691406 90.964844 127.757812 C 90.722656 127.828125 90.488281 127.917969 90.265625 128.039062 C 90.039062 128.15625 89.832031 128.296875 89.636719 128.457031 C 89.445312 128.621094 89.269531 128.804688 89.117188 129.003906 C 88.960938 129.203125 88.832031 129.417969 88.722656 129.648438 C 88.617188 129.875 88.53125 130.113281 88.476562 130.359375 C 88.417969 130.605469 88.390625 130.855469 88.386719 131.109375 C 88.382812 131.359375 88.40625 131.609375 88.457031 131.859375 L 88.617188 132.6875 C 88.65625 132.882812 88.617188 133.0625 88.5 133.222656 C 88.382812 133.382812 88.226562 133.472656 88.027344 133.496094 C 87.828125 133.523438 87.644531 133.476562 87.476562 133.359375 C 87.308594 133.242188 87.203125 133.085938 87.164062 132.886719 L 87.027344 132.1875 C 86.957031 131.859375 86.921875 131.527344 86.921875 131.195312 C 86.917969 130.859375 86.949219 130.527344 87.015625 130.199219 C 87.078125 129.875 87.175781 129.554688 87.304688 129.246094 C 87.433594 128.9375 87.589844 128.644531 87.78125 128.371094 C 87.96875 128.09375 88.183594 127.839844 88.421875 127.605469 C 88.660156 127.375 88.921875 127.167969 89.203125 126.984375 C 89.484375 126.804688 89.78125 126.65625 90.09375 126.535156 C 90.402344 126.414062 90.722656 126.328125 91.054688 126.269531 C 91.40625 126.210938 91.765625 126.1875 92.125 126.195312 C 92.480469 126.203125 92.835938 126.246094 93.1875 126.324219 C 93.539062 126.398438 93.878906 126.507812 94.207031 126.648438 C 94.539062 126.789062 94.851562 126.960938 95.148438 127.164062 C 95.445312 127.363281 95.722656 127.59375 95.976562 127.847656 C 96.230469 128.101562 96.457031 128.375 96.65625 128.671875 C 96.859375 128.96875 97.03125 129.285156 97.171875 129.613281 C 97.3125 129.945312 97.421875 130.285156 97.496094 130.636719 L 97.65625 131.460938 C 97.699219 131.660156 97.65625 131.835938 97.535156 132 C 97.414062 132.160156 97.253906 132.25 97.054688 132.265625 Z M 97.054688 132.265625 " fill-opacity="1" fill-rule="nonzero"/><path fill="#5ab4a8" d="M 108.214844 153.164062 L 78.53125 153.164062 L 78.335938 147.265625 L 108.011719 147.265625 Z M 108.214844 153.164062 " fill-opacity="1" fill-rule="nonzero"/><path fill="#263238" d="M 93.894531 119.753906 C 93.902344 119.96875 93.867188 120.179688 93.789062 120.382812 C 93.714844 120.585938 93.597656 120.765625 93.449219 120.921875 C 93.296875 121.082031 93.121094 121.199219 92.917969 121.285156 C 92.71875 121.371094 92.511719 121.410156 92.292969 121.410156 C 92.070312 121.40625 91.855469 121.363281 91.652344 121.28125 C 91.445312 121.195312 91.261719 121.078125 91.105469 120.921875 C 90.945312 120.769531 90.820312 120.589844 90.726562 120.390625 C 90.636719 120.1875 90.585938 119.976562 90.574219 119.753906 C 90.566406 119.535156 90.601562 119.324219 90.679688 119.121094 C 90.757812 118.917969 90.871094 118.738281 91.019531 118.582031 C 91.171875 118.425781 91.347656 118.304688 91.550781 118.222656 C 91.75 118.136719 91.957031 118.09375 92.175781 118.097656 C 92.398438 118.097656 92.613281 118.140625 92.816406 118.222656 C 93.023438 118.308594 93.207031 118.425781 93.367188 118.582031 C 93.527344 118.734375 93.652344 118.914062 93.742188 119.117188 C 93.832031 119.320312 93.882812 119.53125 93.894531 119.753906 Z M 93.894531 119.753906 " fill-opacity="1" fill-rule="nonzero"/><path fill="#263238" d="M 86.734375 119.753906 C 86.746094 119.96875 86.710938 120.179688 86.632812 120.386719 C 86.558594 120.589844 86.441406 120.769531 86.292969 120.925781 C 86.140625 121.082031 85.964844 121.203125 85.761719 121.285156 C 85.5625 121.371094 85.351562 121.410156 85.132812 121.410156 C 84.914062 121.40625 84.699219 121.363281 84.496094 121.28125 C 84.289062 121.195312 84.105469 121.078125 83.949219 120.921875 C 83.789062 120.769531 83.664062 120.589844 83.574219 120.386719 C 83.480469 120.1875 83.433594 119.972656 83.421875 119.753906 C 83.414062 119.535156 83.449219 119.324219 83.527344 119.121094 C 83.601562 118.917969 83.71875 118.738281 83.867188 118.582031 C 84.019531 118.425781 84.195312 118.304688 84.398438 118.222656 C 84.597656 118.136719 84.804688 118.09375 85.023438 118.097656 C 85.246094 118.097656 85.460938 118.140625 85.664062 118.222656 C 85.871094 118.308594 86.050781 118.425781 86.210938 118.582031 C 86.371094 118.734375 86.496094 118.914062 86.585938 119.117188 C 86.675781 119.320312 86.726562 119.53125 86.734375 119.753906 Z M 86.734375 119.753906 " fill-opacity="1" fill-rule="nonzero"/><path fill="#263238" d="M 79.621094 119.753906 C 79.632812 119.96875 79.597656 120.179688 79.519531 120.382812 C 79.441406 120.585938 79.328125 120.765625 79.175781 120.925781 C 79.027344 121.082031 78.851562 121.199219 78.648438 121.285156 C 78.449219 121.371094 78.238281 121.410156 78.023438 121.410156 C 77.800781 121.40625 77.585938 121.367188 77.382812 121.28125 C 77.175781 121.199219 76.992188 121.078125 76.832031 120.925781 C 76.675781 120.769531 76.550781 120.59375 76.460938 120.390625 C 76.367188 120.1875 76.320312 119.972656 76.3125 119.753906 C 76.300781 119.535156 76.335938 119.324219 76.414062 119.121094 C 76.492188 118.917969 76.605469 118.738281 76.757812 118.582031 C 76.90625 118.425781 77.082031 118.304688 77.285156 118.222656 C 77.484375 118.136719 77.695312 118.09375 77.910156 118.097656 C 78.132812 118.097656 78.347656 118.140625 78.550781 118.222656 C 78.757812 118.308594 78.941406 118.425781 79.101562 118.582031 C 79.257812 118.734375 79.382812 118.914062 79.472656 119.117188 C 79.566406 119.320312 79.613281 119.53125 79.621094 119.753906 Z M 79.621094 119.753906 " fill-opacity="1" fill-rule="nonzero"/><path fill="#263238" d="M 101.027344 119.753906 C 101.035156 119.96875 101 120.179688 100.921875 120.382812 C 100.84375 120.585938 100.730469 120.765625 100.578125 120.921875 C 100.429688 121.082031 100.253906 121.199219 100.050781 121.285156 C 99.851562 121.371094 99.640625 121.410156 99.425781 121.410156 C 99.203125 121.40625 98.988281 121.367188 98.785156 121.28125 C 98.578125 121.199219 98.394531 121.078125 98.238281 120.925781 C 98.078125 120.769531 97.953125 120.59375 97.863281 120.390625 C 97.769531 120.1875 97.722656 119.972656 97.714844 119.753906 C 97.707031 119.535156 97.742188 119.328125 97.820312 119.125 C 97.898438 118.921875 98.011719 118.742188 98.164062 118.589844 C 98.316406 118.433594 98.492188 118.316406 98.691406 118.230469 C 98.894531 118.148438 99.101562 118.109375 99.320312 118.113281 C 99.539062 118.113281 99.75 118.15625 99.957031 118.238281 C 100.160156 118.320312 100.339844 118.441406 100.5 118.59375 C 100.65625 118.746094 100.78125 118.921875 100.875 119.121094 C 100.964844 119.324219 101.015625 119.53125 101.027344 119.753906 Z M 101.027344 119.753906 " fill-opacity="1" fill-rule="nonzero"/><path fill="#263238" d="M 108.15625 119.753906 C 108.167969 119.96875 108.132812 120.179688 108.058594 120.386719 C 107.980469 120.589844 107.867188 120.769531 107.714844 120.925781 C 107.5625 121.082031 107.386719 121.203125 107.1875 121.285156 C 106.984375 121.371094 106.773438 121.410156 106.558594 121.410156 C 106.335938 121.40625 106.121094 121.363281 105.917969 121.28125 C 105.710938 121.195312 105.53125 121.078125 105.371094 120.921875 C 105.210938 120.769531 105.085938 120.589844 104.996094 120.386719 C 104.90625 120.1875 104.855469 119.972656 104.847656 119.753906 C 104.835938 119.535156 104.871094 119.324219 104.949219 119.121094 C 105.027344 118.917969 105.140625 118.738281 105.292969 118.582031 C 105.441406 118.425781 105.617188 118.304688 105.820312 118.222656 C 106.019531 118.136719 106.230469 118.09375 106.445312 118.097656 C 106.667969 118.097656 106.882812 118.140625 107.085938 118.222656 C 107.292969 118.308594 107.476562 118.425781 107.636719 118.582031 C 107.792969 118.734375 107.917969 118.914062 108.011719 119.117188 C 108.101562 119.320312 108.148438 119.53125 108.15625 119.753906 Z M 108.15625 119.753906 " fill-opacity="1" fill-rule="nonzero"/><path fill="#ff8b7b" d="M 168.234375 75.46875 C 168.902344 76.542969 169.460938 77.570312 170.035156 78.644531 C 170.609375 79.714844 171.128906 80.792969 171.636719 81.894531 C 172.675781 84.132812 173.53125 86.433594 174.203125 88.804688 C 174.292969 89.101562 174.359375 89.421875 174.433594 89.726562 L 174.546875 90.195312 L 174.601562 90.425781 L 174.667969 90.808594 C 174.78125 91.6875 174.730469 92.550781 174.511719 93.40625 C 174.160156 94.730469 173.636719 95.980469 172.941406 97.15625 C 171.691406 99.292969 170.203125 101.246094 168.46875 103.011719 L 166.351562 101.410156 C 167.414062 99.453125 168.359375 97.441406 169.183594 95.371094 C 169.554688 94.457031 169.808594 93.511719 169.957031 92.535156 C 170.003906 92.238281 169.988281 91.941406 169.914062 91.644531 L 169.714844 91.03125 C 169.632812 90.78125 169.558594 90.527344 169.460938 90.269531 C 168.695312 88.191406 167.8125 86.167969 166.808594 84.191406 C 165.800781 82.175781 164.71875 80.164062 163.636719 78.242188 Z M 168.234375 75.46875 " fill-opacity="1" fill-rule="nonzero"/><path fill="#ff8b7b" d="M 166.890625 100.710938 L 164.574219 101.933594 L 167.230469 105.042969 C 167.230469 105.042969 168.894531 103.921875 168.96875 102.210938 Z M 166.890625 100.710938 " fill-opacity="1" fill-rule="nonzero"/><path fill="#ff8b7b" d="M 161.46875 103.851562 L 164.3125 106.113281 L 167.230469 105.042969 L 164.574219 101.933594 Z M 161.46875 103.851562 " fill-opacity="1" fill-rule="nonzero"/><path fill="#263238" d="M 151.742188 58.996094 C 151.6875 59.28125 151.492188 59.476562 151.3125 59.441406 C 151.128906 59.40625 151.023438 59.144531 151.078125 58.867188 C 151.136719 58.589844 151.332031 58.363281 151.515625 58.425781 C 151.703125 58.484375 151.800781 58.714844 151.742188 58.996094 Z M 151.742188 58.996094 " fill-opacity="1" fill-rule="nonzero"/><path fill="#ff5652" d="M 151.515625 59.480469 C 151.007812 60.273438 150.402344 60.980469 149.695312 61.605469 C 150.046875 61.96875 150.476562 62.136719 150.984375 62.109375 Z M 151.515625 59.480469 " fill-opacity="1" fill-rule="nonzero"/><path fill="#ff8b7b" d="M 150.609375 69.355469 L 150.609375 66.054688 L 154.980469 66.558594 C 154.980469 66.558594 154.910156 69.398438 152.464844 70.234375 Z M 150.609375 69.355469 " fill-opacity="1" fill-rule="nonzero"/><path fill="#ff8b7b" d="M 151.871094 63.679688 L 154.945312 64.566406 L 155 66.582031 L 150.632812 66.054688 Z M 151.871094 63.679688 " fill-opacity="1" fill-rule="nonzero"/><path fill="#000000" d="M 154.945312 64.566406 L 151.871094 63.679688 L 151.269531 64.828125 C 151.285156 65.277344 151.363281 65.71875 151.503906 66.152344 C 151.640625 66.582031 151.835938 66.984375 152.085938 67.363281 C 152.335938 67.738281 152.632812 68.074219 152.976562 68.367188 C 153.320312 68.664062 153.699219 68.90625 154.109375 69.09375 C 154.648438 68.34375 154.945312 67.503906 155 66.578125 Z M 154.945312 64.566406 " fill-opacity="0.2" fill-rule="nonzero"/><path fill="#263238" d="M 153.082031 57.652344 C 153.15625 57.652344 153.207031 57.617188 153.234375 57.550781 C 153.265625 57.488281 153.253906 57.425781 153.207031 57.371094 C 152.828125 56.941406 152.351562 56.757812 151.777344 56.816406 C 151.671875 56.835938 151.625 56.902344 151.644531 57.007812 C 151.660156 57.117188 151.726562 57.164062 151.835938 57.152344 C 152.289062 57.105469 152.664062 57.253906 152.960938 57.597656 C 152.996094 57.632812 153.035156 57.652344 153.082031 57.652344 Z M 153.082031 57.652344 " fill-opacity="1" fill-rule="nonzero"/><path fill="#ff8b7b" d="M 159.515625 64.089844 C 159.011719 66.683594 158.699219 70.273438 160.523438 72 C 160.523438 72 159.816406 74.628906 154.984375 74.628906 C 149.695312 74.628906 152.445312 72.320312 152.445312 72.320312 C 154.644531 71.636719 154.621094 69.136719 154.121094 67.121094 Z M 159.515625 64.089844 " fill-opacity="1" fill-rule="nonzero"/><path fill="#5ab4a8" d="M 161.503906 73.730469 C 161.976562 73.066406 161.957031 70.957031 161.453125 70.585938 C 160.644531 69.984375 157.164062 69.84375 152.488281 70.921875 C 152.992188 72.964844 151.910156 74.03125 151.910156 74.03125 Z M 161.503906 73.730469 " fill-opacity="1" fill-rule="nonzero"/><path fill="#5ab4a8" d="M 177.238281 193.234375 C 176.9375 193.339844 176.640625 193.324219 176.351562 193.183594 C 176.234375 193.074219 176.207031 192.941406 176.273438 192.796875 C 176.304688 192.679688 176.378906 192.597656 176.488281 192.546875 C 176.96875 192.316406 178.0625 192.765625 178.113281 192.785156 C 178.148438 192.796875 178.164062 192.824219 178.164062 192.859375 C 178.164062 192.894531 178.148438 192.921875 178.121094 192.941406 C 177.835938 193.066406 177.542969 193.164062 177.238281 193.234375 Z M 176.660156 192.664062 C 176.625 192.671875 176.59375 192.683594 176.5625 192.699219 C 176.496094 192.722656 176.453125 192.769531 176.433594 192.839844 C 176.386719 192.992188 176.433594 193.042969 176.464844 193.058594 C 176.65625 193.21875 177.359375 193.058594 177.859375 192.871094 C 177.472656 192.710938 177.074219 192.644531 176.660156 192.664062 Z M 176.660156 192.664062 " fill-opacity="1" fill-rule="nonzero"/><path fill="#5ab4a8" d="M 178.097656 192.945312 L 178.058594 192.945312 C 177.65625 192.832031 176.800781 192.222656 176.789062 191.824219 C 176.789062 191.675781 176.863281 191.585938 177.007812 191.550781 C 177.132812 191.503906 177.257812 191.515625 177.375 191.582031 C 177.847656 191.824219 178.148438 192.800781 178.160156 192.84375 C 178.175781 192.871094 178.175781 192.898438 178.160156 192.925781 C 178.144531 192.941406 178.125 192.949219 178.097656 192.945312 Z M 177.09375 191.691406 L 177.050781 191.691406 C 176.953125 191.726562 176.953125 191.777344 176.953125 191.804688 C 176.953125 192.039062 177.527344 192.519531 177.957031 192.710938 C 177.851562 192.425781 177.621094 191.867188 177.3125 191.703125 C 177.242188 191.671875 177.171875 191.667969 177.097656 191.691406 Z M 177.09375 191.691406 " fill-opacity="1" fill-rule="nonzero"/><path fill="#5ab4a8" d="M 151.09375 193.828125 C 150.640625 193.828125 150.203125 193.761719 150.058594 193.558594 C 149.96875 193.4375 149.96875 193.316406 150.058594 193.191406 C 150.117188 193.089844 150.207031 193.023438 150.324219 192.996094 C 150.914062 192.835938 152.152344 193.539062 152.203125 193.570312 C 152.238281 193.589844 152.25 193.617188 152.242188 193.65625 C 152.238281 193.695312 152.214844 193.71875 152.175781 193.726562 C 151.820312 193.792969 151.457031 193.824219 151.09375 193.828125 Z M 150.535156 193.136719 C 150.480469 193.128906 150.429688 193.128906 150.375 193.136719 C 150.304688 193.152344 150.246094 193.191406 150.207031 193.253906 C 150.148438 193.359375 150.171875 193.410156 150.207031 193.4375 C 150.375 193.671875 151.265625 193.675781 151.925781 193.582031 C 151.492188 193.34375 151.027344 193.195312 150.535156 193.136719 Z M 150.535156 193.136719 " fill-opacity="1" fill-rule="nonzero"/><path fill="#5ab4a8" d="M 152.171875 193.726562 L 152.136719 193.726562 C 151.707031 193.535156 150.863281 192.769531 150.929688 192.367188 C 150.929688 192.273438 151.007812 192.15625 151.242188 192.136719 C 151.414062 192.113281 151.570312 192.160156 151.703125 192.277344 C 152.035156 192.671875 152.21875 193.125 152.257812 193.640625 C 152.257812 193.671875 152.246094 193.695312 152.222656 193.714844 C 152.207031 193.722656 152.1875 193.726562 152.171875 193.726562 Z M 151.304688 192.292969 L 151.253906 192.292969 C 151.105469 192.292969 151.09375 192.363281 151.09375 192.382812 C 151.054688 192.625 151.628906 193.226562 152.066406 193.488281 C 152.027344 193.074219 151.871094 192.710938 151.597656 192.398438 C 151.511719 192.324219 151.414062 192.289062 151.300781 192.292969 Z M 151.304688 192.292969 " fill-opacity="1" fill-rule="nonzero"/><path fill="#ff8b7b" d="M 156.058594 193.644531 L 152.519531 193.644531 L 152.167969 185.445312 L 155.707031 185.445312 Z M 156.058594 193.644531 " fill-opacity="1" fill-rule="nonzero"/><path fill="#ff8b7b" d="M 182.046875 192.003906 L 178.585938 192.753906 L 175.109375 185.117188 L 178.574219 184.367188 Z M 182.046875 192.003906 " fill-opacity="1" fill-rule="nonzero"/><path fill="#263238" d="M 178.25 192.40625 L 182.140625 191.566406 C 182.300781 191.53125 182.414062 191.589844 182.484375 191.738281 L 183.832031 194.667969 C 183.871094 194.738281 183.886719 194.816406 183.886719 194.894531 C 183.886719 194.976562 183.867188 195.054688 183.832031 195.125 C 183.792969 195.195312 183.742188 195.257812 183.679688 195.304688 C 183.613281 195.351562 183.539062 195.378906 183.460938 195.390625 C 182.101562 195.660156 181.421875 195.722656 179.714844 196.09375 C 178.664062 196.324219 176.289062 196.902344 174.832031 197.214844 C 173.378906 197.527344 172.878906 196.132812 173.449219 195.875 C 175.992188 194.710938 177.046875 193.691406 177.738281 192.738281 C 177.867188 192.5625 178.039062 192.453125 178.25 192.40625 Z M 178.25 192.40625 " fill-opacity="1" fill-rule="nonzero"/><path fill="#263238" d="M 152.542969 193.234375 L 156.410156 193.234375 C 156.574219 193.234375 156.675781 193.316406 156.710938 193.472656 L 157.410156 196.621094 C 157.433594 196.699219 157.433594 196.773438 157.417969 196.851562 C 157.402344 196.933594 157.371094 197.003906 157.320312 197.066406 C 157.269531 197.128906 157.210938 197.175781 157.136719 197.207031 C 157.0625 197.242188 156.988281 197.257812 156.910156 197.253906 C 155.515625 197.230469 153.5 197.148438 151.75 197.148438 C 149.695312 197.148438 147.929688 197.261719 145.523438 197.261719 C 144.066406 197.261719 143.664062 195.789062 144.273438 195.652344 C 147.042969 195.050781 149.308594 194.984375 151.699219 193.511719 C 151.953125 193.339844 152.238281 193.246094 152.542969 193.234375 Z M 152.542969 193.234375 " fill-opacity="1" fill-rule="nonzero"/><path fill="#5ab4a8" d="M 166.855469 72.808594 C 170.171875 73.570312 172.894531 82.042969 172.894531 82.042969 L 166.265625 87.109375 C 164.515625 85.238281 163.339844 83.058594 162.742188 80.566406 C 161.570312 76.128906 163.460938 72.023438 166.855469 72.808594 Z M 166.855469 72.808594 " fill-opacity="1" fill-rule="nonzero"/><path fill="#000000" d="M 166.855469 72.808594 C 170.171875 73.570312 172.894531 82.042969 172.894531 82.042969 L 166.265625 87.109375 C 164.515625 85.238281 163.339844 83.058594 162.742188 80.566406 C 161.570312 76.128906 163.460938 72.023438 166.855469 72.808594 Z M 166.855469 72.808594 " fill-opacity="0.4" fill-rule="nonzero"/><path fill="#ff8b7b" d="M 149.402344 82.914062 C 148.578125 83.804688 147.753906 84.597656 146.886719 85.429688 C 146.457031 85.832031 146.027344 86.234375 145.582031 86.621094 L 144.914062 87.210938 L 144.746094 87.355469 L 144.460938 87.589844 C 144.164062 87.824219 143.839844 88.015625 143.488281 88.164062 C 143.097656 88.328125 142.6875 88.414062 142.261719 88.414062 C 141.898438 88.414062 141.542969 88.351562 141.203125 88.226562 C 140.824219 88.082031 140.488281 87.871094 140.195312 87.589844 C 139.820312 87.222656 139.558594 86.789062 139.410156 86.285156 C 139.335938 86.039062 139.285156 85.789062 139.265625 85.535156 C 139.238281 85.234375 139.238281 84.9375 139.265625 84.640625 C 139.289062 84.398438 139.320312 84.1875 139.359375 83.988281 C 139.5 83.300781 139.695312 82.628906 139.945312 81.976562 C 140.171875 81.355469 140.433594 80.746094 140.726562 80.152344 C 141.046875 79.515625 141.355469 79.046875 141.660156 78.511719 C 142.910156 76.464844 144.328125 74.542969 145.914062 72.746094 C 147.484375 70.957031 149.207031 69.324219 151.074219 67.851562 L 152.925781 69.757812 C 151.628906 71.5 150.347656 73.367188 149.167969 75.207031 C 147.988281 77.035156 146.914062 78.921875 145.945312 80.867188 C 145.730469 81.339844 145.441406 81.875 145.304688 82.257812 C 145.125 82.703125 144.96875 83.15625 144.835938 83.617188 C 144.710938 84.03125 144.613281 84.457031 144.550781 84.886719 C 144.546875 84.953125 144.546875 85.019531 144.550781 85.085938 C 144.550781 85.128906 144.550781 85.148438 144.550781 85.042969 C 144.542969 84.929688 144.519531 84.816406 144.484375 84.710938 C 144.375 84.347656 144.183594 84.035156 143.90625 83.773438 C 143.664062 83.550781 143.386719 83.382812 143.074219 83.269531 C 142.804688 83.167969 142.523438 83.113281 142.230469 83.113281 C 141.949219 83.109375 141.679688 83.164062 141.421875 83.269531 C 141.332031 83.304688 141.25 83.347656 141.167969 83.394531 L 141.359375 83.21875 L 141.96875 82.664062 L 143.171875 81.539062 C 143.96875 80.789062 144.765625 79.988281 145.523438 79.242188 Z M 149.402344 82.914062 " fill-opacity="1" fill-rule="nonzero"/><path fill="#000000" d="M 164.011719 79.03125 C 165.8125 80.8125 166.402344 84.066406 166.527344 86.882812 L 166.234375 87.109375 C 164.484375 85.238281 163.3125 83.058594 162.710938 80.566406 C 162.648438 80.304688 162.585938 80.0625 162.539062 79.777344 Z M 164.011719 79.03125 " fill-opacity="0.2" fill-rule="nonzero"/><path fill="#5ab4a8" d="M 145.882812 76.332031 C 145.160156 80.160156 144.707031 88.015625 146.804688 103.570312 L 165.761719 103.570312 C 165.894531 100.664062 164.066406 86.480469 166.871094 72.785156 C 164.773438 72.382812 162.660156 72.117188 160.527344 71.984375 C 157.84375 71.832031 155.160156 71.832031 152.472656 71.984375 C 151.585938 72.066406 150.710938 72.195312 149.957031 72.332031 C 149.453125 72.417969 148.976562 72.582031 148.523438 72.8125 C 148.070312 73.046875 147.664062 73.34375 147.296875 73.699219 C 146.933594 74.054688 146.632812 74.460938 146.390625 74.910156 C 146.152344 75.359375 145.980469 75.832031 145.882812 76.332031 Z M 145.882812 76.332031 " fill-opacity="1" fill-rule="nonzero"/><path fill="#000000" d="M 145.882812 76.332031 C 145.160156 80.160156 144.707031 88.015625 146.804688 103.570312 L 165.761719 103.570312 C 165.894531 100.664062 164.066406 86.480469 166.871094 72.785156 C 164.773438 72.382812 162.660156 72.117188 160.527344 71.984375 C 157.84375 71.832031 155.160156 71.832031 152.472656 71.984375 C 151.585938 72.066406 150.710938 72.195312 149.957031 72.332031 C 149.453125 72.417969 148.976562 72.582031 148.523438 72.8125 C 148.070312 73.046875 147.664062 73.34375 147.296875 73.699219 C 146.933594 74.054688 146.632812 74.460938 146.390625 74.910156 C 146.152344 75.359375 145.980469 75.832031 145.882812 76.332031 Z M 145.882812 76.332031 " fill-opacity="0.4" fill-rule="nonzero"/><path fill="#000000" d="M 148.785156 82.007812 L 145.359375 81.1875 C 145.253906 83.257812 145.246094 85.828125 145.398438 89.003906 C 146.972656 87.210938 148.984375 84.414062 148.785156 82.007812 Z M 148.785156 82.007812 " fill-opacity="0.2" fill-rule="nonzero"/><path fill="#000000" d="M 152.167969 185.445312 L 152.347656 189.675781 L 155.890625 189.675781 L 155.710938 185.445312 Z M 152.167969 185.445312 " fill-opacity="0.2" fill-rule="nonzero"/><path fill="#000000" d="M 178.574219 184.367188 L 175.109375 185.117188 L 176.902344 189.054688 L 180.363281 188.304688 Z M 178.574219 184.367188 " fill-opacity="0.2" fill-rule="nonzero"/><path fill="#ff8b7b" d="M 161.195312 60.304688 C 160.289062 63.699219 159.929688 65.734375 157.835938 67.140625 C 154.6875 69.285156 150.761719 66.828125 150.660156 63.246094 C 150.550781 60.007812 152.054688 55 155.695312 54.316406 C 155.894531 54.277344 156.09375 54.253906 156.296875 54.242188 C 156.5 54.230469 156.703125 54.230469 156.902344 54.246094 C 157.105469 54.257812 157.304688 54.285156 157.503906 54.324219 C 157.703125 54.363281 157.898438 54.414062 158.089844 54.480469 C 158.285156 54.542969 158.472656 54.617188 158.652344 54.707031 C 158.835938 54.792969 159.011719 54.894531 159.183594 55.003906 C 159.351562 55.113281 159.515625 55.234375 159.671875 55.363281 C 159.824219 55.496094 159.972656 55.636719 160.109375 55.785156 C 160.246094 55.933594 160.371094 56.089844 160.488281 56.257812 C 160.605469 56.421875 160.710938 56.59375 160.808594 56.773438 C 160.902344 56.953125 160.988281 57.136719 161.058594 57.324219 C 161.128906 57.515625 161.191406 57.707031 161.238281 57.90625 C 161.285156 58.101562 161.320312 58.300781 161.34375 58.503906 C 161.363281 58.703125 161.375 58.90625 161.371094 59.109375 C 161.367188 59.3125 161.351562 59.511719 161.320312 59.710938 C 161.292969 59.914062 161.25 60.109375 161.195312 60.304688 Z M 161.195312 60.304688 " fill-opacity="1" fill-rule="nonzero"/><path fill="#263238" d="M 153.253906 60.433594 C 153.082031 59.980469 152.300781 56.472656 153.039062 55.558594 C 153.773438 54.648438 162.152344 55.308594 163.390625 56.527344 C 165.449219 58.539062 164.019531 60.351562 161.769531 62.683594 C 160.078125 64.433594 160.015625 66.40625 159.160156 66.710938 C 157.648438 67.210938 155.34375 66.738281 154.878906 65.144531 C 154.417969 63.546875 153.253906 60.433594 153.253906 60.433594 Z M 153.253906 60.433594 " fill-opacity="1" fill-rule="nonzero"/><path fill="#263238" d="M 162.375 52.535156 C 159.414062 51.277344 153.863281 52.671875 150.863281 51.945312 C 150.84375 52.503906 150.921875 53.046875 151.101562 53.574219 C 151.277344 54.105469 151.542969 54.585938 151.894531 55.019531 C 152.246094 55.453125 152.664062 55.808594 153.144531 56.089844 C 153.628906 56.375 154.144531 56.5625 154.695312 56.65625 C 157.1875 57.132812 159.703125 57.367188 162.242188 57.355469 C 165.535156 57.207031 164.890625 53.605469 162.375 52.535156 Z M 162.375 52.535156 " fill-opacity="1" fill-rule="nonzero"/><path fill="#263238" d="M 162.835938 56.632812 C 163.941406 56.742188 164.988281 56.539062 165.972656 56.03125 C 166.527344 57.371094 163.480469 57.738281 162.835938 56.632812 Z M 162.835938 56.632812 " fill-opacity="1" fill-rule="nonzero"/><path fill="#ff8b7b" d="M 154.863281 60.574219 C 154.792969 61.46875 154.460938 62.253906 153.859375 62.925781 C 153.082031 63.773438 152.277344 63.242188 152.140625 62.210938 C 152.019531 61.273438 152.273438 59.691406 153.21875 59.238281 C 154.164062 58.785156 154.929688 59.519531 154.863281 60.574219 Z M 154.863281 60.574219 " fill-opacity="1" fill-rule="nonzero"/><path fill="#5ab4a8" d="M 153.527344 103.585938 C 153.527344 103.585938 157.550781 130.640625 159.753906 140.777344 C 162.164062 151.878906 175.121094 188.597656 175.121094 188.597656 L 181.457031 187.222656 C 181.457031 187.222656 172.398438 157.292969 170.382812 141.773438 C 168.824219 129.855469 165.757812 103.574219 165.757812 103.574219 Z M 153.527344 103.585938 " fill-opacity="1" fill-rule="nonzero"/><path fill="#263238" d="M 173.597656 186.488281 C 173.574219 186.488281 174.78125 188.785156 174.78125 188.785156 L 181.910156 187.238281 L 181.3125 185.09375 Z M 173.597656 186.488281 " fill-opacity="1" fill-rule="nonzero"/><path fill="#000000" d="M 156.066406 113.222656 C 160.714844 114.136719 160.21875 131.460938 159.660156 140.375 C 158.324219 134.074219 156.359375 121.953125 155.019531 113.351562 C 155.355469 113.183594 155.703125 113.144531 156.066406 113.222656 Z M 156.066406 113.222656 " fill-opacity="0.298" fill-rule="nonzero"/><path fill="#5ab4a8" d="M 146.804688 103.585938 C 146.804688 103.585938 146.300781 130.054688 146.707031 140.832031 C 147.109375 152.0625 151.027344 188.832031 151.027344 188.832031 L 157.027344 188.832031 C 157.027344 188.832031 157.246094 152.71875 157.53125 141.6875 C 157.824219 129.667969 159.273438 103.566406 159.273438 103.566406 Z M 146.804688 103.585938 " fill-opacity="1" fill-rule="nonzero"/><path fill="#263238" d="M 149.875 186.46875 C 149.847656 186.46875 150.214844 188.953125 150.214844 188.953125 L 157.507812 188.953125 L 157.707031 186.734375 Z M 149.875 186.46875 " fill-opacity="1" fill-rule="nonzero"/><path fill="#5ab4a8" d="M 153.304688 77.511719 C 155 82.085938 145.027344 87.476562 145.027344 87.476562 L 140.710938 81.941406 C 140.710938 81.941406 143.613281 76.191406 147.136719 73.605469 C 151.492188 70.414062 152.011719 74.027344 153.304688 77.511719 Z M 153.304688 77.511719 " fill-opacity="1" fill-rule="nonzero"/><path fill="#000000" d="M 153.304688 77.511719 C 155 82.085938 145.027344 87.476562 145.027344 87.476562 L 140.710938 81.941406 C 140.710938 81.941406 143.613281 76.191406 147.136719 73.605469 C 151.492188 70.414062 152.011719 74.027344 153.304688 77.511719 Z M 153.304688 77.511719 " fill-opacity="0.4" fill-rule="nonzero"/><path fill="#5ab4a8" d="M 210.539062 31.199219 C 210.539062 31.957031 210.425781 32.710938 210.191406 33.457031 C 209.960938 34.203125 209.613281 34.925781 209.15625 35.628906 C 208.703125 36.328125 208.140625 36.996094 207.480469 37.628906 C 206.816406 38.261719 206.0625 38.847656 205.21875 39.382812 C 204.375 39.921875 203.460938 40.402344 202.46875 40.824219 C 201.476562 41.246094 200.429688 41.601562 199.328125 41.894531 C 198.226562 42.183594 197.089844 42.402344 195.917969 42.550781 C 194.75 42.699219 193.566406 42.773438 192.375 42.773438 C 191.183594 42.773438 190 42.699219 188.832031 42.550781 C 187.660156 42.402344 186.523438 42.183594 185.421875 41.894531 C 184.320312 41.601562 183.273438 41.246094 182.28125 40.824219 C 181.289062 40.402344 180.371094 39.921875 179.53125 39.382812 C 178.6875 38.847656 177.933594 38.261719 177.269531 37.628906 C 176.609375 36.996094 176.046875 36.328125 175.589844 35.628906 C 175.136719 34.925781 174.789062 34.203125 174.558594 33.457031 C 174.324219 32.710938 174.207031 31.957031 174.207031 31.199219 C 174.207031 30.4375 174.324219 29.683594 174.558594 28.9375 C 174.789062 28.191406 175.136719 27.46875 175.589844 26.765625 C 176.046875 26.066406 176.609375 25.398438 177.269531 24.765625 C 177.933594 24.132812 178.6875 23.546875 179.53125 23.011719 C 180.371094 22.472656 181.289062 21.992188 182.28125 21.570312 C 183.273438 21.148438 184.320312 20.792969 185.421875 20.5 C 186.523438 20.210938 187.660156 19.992188 188.832031 19.84375 C 190 19.695312 191.183594 19.621094 192.375 19.621094 C 193.566406 19.621094 194.75 19.695312 195.917969 19.84375 C 197.089844 19.992188 198.226562 20.210938 199.328125 20.5 C 200.429688 20.792969 201.476562 21.148438 202.46875 21.570312 C 203.460938 21.992188 204.375 22.472656 205.21875 23.011719 C 206.0625 23.546875 206.816406 24.132812 207.480469 24.765625 C 208.140625 25.398438 208.703125 26.066406 209.15625 26.765625 C 209.613281 27.46875 209.960938 28.191406 210.191406 28.9375 C 210.425781 29.683594 210.539062 30.4375 210.539062 31.199219 Z M 210.539062 31.199219 " fill-opacity="1" fill-rule="nonzero"/><path fill="#ffffff" d="M 185.820312 37.027344 C 185.222656 37.023438 184.644531 36.921875 184.082031 36.714844 C 183.519531 36.507812 183.011719 36.210938 182.554688 35.824219 C 182.097656 35.4375 181.71875 34.984375 181.421875 34.464844 C 181.125 33.945312 180.925781 33.394531 180.824219 32.804688 C 180.773438 32.488281 180.753906 32.167969 180.761719 31.847656 C 180.773438 31.527344 180.8125 31.210938 180.882812 30.898438 C 180.949219 30.585938 181.046875 30.28125 181.171875 29.988281 C 181.300781 29.691406 181.453125 29.410156 181.628906 29.144531 C 181.808594 28.878906 182.007812 28.632812 182.234375 28.402344 C 182.457031 28.175781 182.703125 27.96875 182.964844 27.785156 C 183.226562 27.601562 183.503906 27.445312 183.796875 27.3125 C 184.089844 27.183594 184.390625 27.078125 184.703125 27.003906 C 185.21875 26.886719 185.742188 26.847656 186.269531 26.894531 C 186.796875 26.9375 187.304688 27.0625 187.792969 27.265625 C 188.28125 27.46875 188.726562 27.746094 189.128906 28.089844 C 189.53125 28.433594 189.871094 28.828125 190.148438 29.28125 L 201.8125 26.875 C 202.035156 26.824219 202.261719 26.816406 202.488281 26.855469 C 202.714844 26.890625 202.925781 26.964844 203.125 27.082031 C 203.324219 27.199219 203.492188 27.347656 203.636719 27.527344 C 203.777344 27.707031 203.878906 27.90625 203.945312 28.125 C 204.007812 28.359375 204.023438 28.597656 203.984375 28.835938 C 203.949219 29.074219 203.867188 29.296875 203.742188 29.5 C 203.613281 29.707031 203.453125 29.878906 203.253906 30.015625 C 203.054688 30.152344 202.839844 30.246094 202.601562 30.296875 L 202.300781 30.355469 C 202.203125 30.375 202.132812 30.425781 202.089844 30.511719 C 202.050781 30.601562 202.050781 30.6875 202.089844 30.773438 L 202.296875 31.308594 C 202.367188 31.488281 202.375 31.667969 202.316406 31.851562 C 202.257812 32.03125 202.144531 32.175781 201.984375 32.28125 C 201.71875 32.441406 201.570312 32.679688 201.535156 32.988281 C 201.519531 33.160156 201.457031 33.308594 201.34375 33.4375 C 201.234375 33.566406 201.09375 33.652344 200.925781 33.6875 L 200.691406 33.738281 C 200.523438 33.769531 200.359375 33.75 200.207031 33.675781 C 200.050781 33.601562 199.933594 33.488281 199.855469 33.335938 C 199.746094 33.15625 199.597656 33.023438 199.40625 32.941406 C 199.214844 32.855469 199.015625 32.835938 198.8125 32.878906 C 198.605469 32.921875 198.433594 33.019531 198.289062 33.171875 C 198.148438 33.324219 198.0625 33.507812 198.039062 33.714844 C 198.023438 33.882812 197.960938 34.03125 197.847656 34.160156 C 197.738281 34.289062 197.597656 34.371094 197.433594 34.410156 L 197.195312 34.460938 C 197.027344 34.488281 196.867188 34.46875 196.714844 34.394531 C 196.558594 34.320312 196.441406 34.207031 196.363281 34.054688 C 196.199219 33.789062 195.96875 33.632812 195.660156 33.582031 C 195.460938 33.558594 195.292969 33.472656 195.160156 33.320312 C 195.027344 33.171875 194.957031 32.996094 194.957031 32.792969 L 194.957031 32.21875 C 194.953125 32.125 194.914062 32.046875 194.835938 31.988281 C 194.761719 31.929688 194.679688 31.910156 194.585938 31.925781 L 190.863281 32.691406 C 190.789062 33.207031 190.636719 33.699219 190.410156 34.167969 C 190.183594 34.636719 189.890625 35.058594 189.53125 35.4375 C 189.171875 35.816406 188.765625 36.132812 188.3125 36.386719 C 187.855469 36.636719 187.375 36.816406 186.863281 36.921875 C 186.519531 36.992188 186.171875 37.027344 185.820312 37.027344 Z M 184.8125 27.460938 C 184.242188 27.597656 183.71875 27.828125 183.234375 28.160156 C 182.753906 28.496094 182.347656 28.90625 182.019531 29.390625 C 181.695312 29.878906 181.46875 30.40625 181.339844 30.980469 C 181.214844 31.554688 181.199219 32.128906 181.289062 32.707031 C 181.390625 33.246094 181.578125 33.75 181.859375 34.222656 C 182.140625 34.691406 182.492188 35.097656 182.917969 35.445312 C 183.34375 35.789062 183.816406 36.046875 184.335938 36.222656 C 184.851562 36.398438 185.386719 36.476562 185.933594 36.460938 C 186.480469 36.445312 187.007812 36.335938 187.515625 36.132812 C 188.023438 35.925781 188.480469 35.640625 188.886719 35.273438 C 189.289062 34.902344 189.621094 34.476562 189.871094 33.988281 C 190.125 33.503906 190.285156 32.988281 190.351562 32.445312 L 190.351562 32.265625 L 194.453125 31.433594 C 194.574219 31.40625 194.691406 31.402344 194.8125 31.429688 C 194.933594 31.453125 195.042969 31.503906 195.140625 31.578125 C 195.238281 31.652344 195.3125 31.742188 195.371094 31.851562 C 195.425781 31.960938 195.457031 32.078125 195.460938 32.199219 L 195.460938 32.773438 C 195.464844 32.933594 195.542969 33.03125 195.703125 33.058594 C 196.171875 33.128906 196.527344 33.367188 196.765625 33.78125 C 196.824219 33.902344 196.925781 33.957031 197.0625 33.941406 L 197.292969 33.890625 C 197.429688 33.855469 197.5 33.769531 197.503906 33.628906 C 197.535156 33.308594 197.660156 33.027344 197.875 32.785156 C 198.09375 32.546875 198.359375 32.390625 198.675781 32.324219 C 198.992188 32.257812 199.296875 32.292969 199.589844 32.425781 C 199.886719 32.558594 200.113281 32.765625 200.273438 33.042969 C 200.332031 33.167969 200.429688 33.222656 200.5625 33.207031 L 200.804688 33.15625 C 200.9375 33.117188 201.007812 33.03125 201.011719 32.894531 C 201.066406 32.421875 201.296875 32.058594 201.703125 31.8125 C 201.832031 31.71875 201.867188 31.597656 201.808594 31.449219 L 201.601562 30.914062 C 201.558594 30.804688 201.539062 30.6875 201.546875 30.570312 C 201.554688 30.449219 201.589844 30.339844 201.644531 30.234375 C 201.703125 30.128906 201.78125 30.042969 201.875 29.96875 C 201.972656 29.898438 202.078125 29.851562 202.195312 29.828125 L 202.503906 29.761719 C 202.671875 29.726562 202.824219 29.660156 202.964844 29.5625 C 203.105469 29.460938 203.222656 29.339844 203.3125 29.195312 C 203.402344 29.046875 203.460938 28.890625 203.488281 28.722656 C 203.511719 28.550781 203.503906 28.382812 203.464844 28.21875 C 203.414062 28.058594 203.339844 27.914062 203.234375 27.785156 C 203.132812 27.65625 203.007812 27.550781 202.863281 27.46875 C 202.71875 27.386719 202.566406 27.332031 202.402344 27.308594 C 202.238281 27.28125 202.074219 27.289062 201.914062 27.328125 L 189.921875 29.816406 L 189.832031 29.660156 C 189.59375 29.234375 189.289062 28.855469 188.925781 28.523438 C 188.558594 28.195312 188.152344 27.929688 187.703125 27.730469 C 187.253906 27.535156 186.78125 27.414062 186.292969 27.367188 C 185.800781 27.324219 185.316406 27.359375 184.839844 27.472656 Z M 185.820312 35.152344 C 185.183594 35.160156 184.59375 34.992188 184.054688 34.648438 C 183.847656 34.515625 183.660156 34.355469 183.488281 34.175781 C 183.316406 34 183.167969 33.800781 183.042969 33.589844 C 182.917969 33.375 182.820312 33.152344 182.746094 32.914062 C 182.671875 32.679688 182.625 32.4375 182.605469 32.191406 C 182.589844 31.941406 182.597656 31.695312 182.636719 31.453125 C 182.675781 31.207031 182.742188 30.972656 182.835938 30.742188 C 182.925781 30.511719 183.046875 30.296875 183.1875 30.09375 C 183.332031 29.890625 183.496094 29.707031 183.679688 29.542969 C 183.863281 29.378906 184.066406 29.238281 184.28125 29.121094 C 184.5 29 184.726562 28.910156 184.964844 28.84375 C 185.207031 28.777344 185.449219 28.738281 185.695312 28.730469 C 185.941406 28.71875 186.1875 28.738281 186.429688 28.785156 C 186.675781 28.832031 186.910156 28.902344 187.136719 29.003906 C 187.363281 29.105469 187.574219 29.230469 187.769531 29.378906 C 187.96875 29.527344 188.144531 29.699219 188.304688 29.886719 C 188.460938 30.078125 188.597656 30.285156 188.707031 30.503906 C 188.820312 30.726562 188.902344 30.957031 188.960938 31.199219 C 189.019531 31.4375 189.050781 31.683594 189.050781 31.929688 C 189.054688 32.179688 189.027344 32.421875 188.972656 32.664062 C 188.917969 32.90625 188.835938 33.136719 188.730469 33.359375 C 188.621094 33.582031 188.488281 33.789062 188.332031 33.984375 C 188.175781 34.175781 188 34.347656 187.804688 34.5 C 187.609375 34.652344 187.402344 34.78125 187.175781 34.882812 C 186.953125 34.988281 186.71875 35.0625 186.476562 35.113281 C 186.261719 35.152344 186.042969 35.167969 185.824219 35.164062 Z M 185.820312 29.210938 C 185.632812 29.210938 185.445312 29.230469 185.261719 29.265625 C 184.910156 29.339844 184.582031 29.480469 184.285156 29.6875 C 183.988281 29.890625 183.738281 30.144531 183.542969 30.449219 C 183.34375 30.753906 183.214844 31.082031 183.148438 31.4375 C 183.082031 31.792969 183.085938 32.148438 183.164062 32.503906 C 183.238281 32.855469 183.378906 33.183594 183.582031 33.480469 C 183.789062 33.78125 184.042969 34.027344 184.347656 34.222656 C 184.648438 34.421875 184.980469 34.550781 185.335938 34.617188 C 185.691406 34.683594 186.046875 34.679688 186.398438 34.605469 C 186.9375 34.492188 187.398438 34.242188 187.785156 33.847656 C 188.171875 33.457031 188.414062 32.992188 188.519531 32.453125 C 188.621094 31.910156 188.566406 31.386719 188.355469 30.882812 C 188.140625 30.375 187.804688 29.96875 187.347656 29.667969 C 186.890625 29.363281 186.390625 29.214844 185.839844 29.21875 Z M 185.820312 29.210938 " fill-opacity="1" fill-rule="nonzero"/><path fill="#5ab4a8" d="M 183.5625 45.757812 C 183.5625 46.007812 183.523438 46.257812 183.445312 46.5 C 183.371094 46.746094 183.257812 46.984375 183.105469 47.214844 C 182.957031 47.445312 182.773438 47.664062 182.554688 47.875 C 182.335938 48.082031 182.089844 48.273438 181.8125 48.449219 C 181.535156 48.625 181.234375 48.785156 180.90625 48.921875 C 180.582031 49.0625 180.238281 49.179688 179.875 49.273438 C 179.511719 49.371094 179.140625 49.441406 178.753906 49.492188 C 178.371094 49.539062 177.984375 49.566406 177.589844 49.566406 C 177.199219 49.566406 176.8125 49.539062 176.425781 49.492188 C 176.042969 49.441406 175.667969 49.371094 175.304688 49.273438 C 174.945312 49.179688 174.601562 49.0625 174.273438 48.921875 C 173.949219 48.785156 173.648438 48.625 173.371094 48.449219 C 173.09375 48.273438 172.84375 48.082031 172.628906 47.875 C 172.410156 47.664062 172.226562 47.445312 172.074219 47.214844 C 171.925781 46.984375 171.8125 46.746094 171.734375 46.5 C 171.660156 46.257812 171.621094 46.007812 171.621094 45.757812 C 171.621094 45.507812 171.660156 45.261719 171.734375 45.015625 C 171.8125 44.773438 171.925781 44.535156 172.074219 44.304688 C 172.226562 44.074219 172.410156 43.851562 172.628906 43.644531 C 172.84375 43.4375 173.09375 43.246094 173.371094 43.070312 C 173.648438 42.890625 173.949219 42.734375 174.273438 42.59375 C 174.601562 42.457031 174.945312 42.339844 175.304688 42.242188 C 175.667969 42.148438 176.042969 42.074219 176.425781 42.027344 C 176.8125 41.976562 177.199219 41.953125 177.589844 41.953125 C 177.984375 41.953125 178.371094 41.976562 178.753906 42.027344 C 179.140625 42.074219 179.511719 42.148438 179.875 42.242188 C 180.238281 42.339844 180.582031 42.457031 180.90625 42.59375 C 181.234375 42.734375 181.535156 42.890625 181.8125 43.070312 C 182.089844 43.246094 182.335938 43.4375 182.554688 43.644531 C 182.773438 43.851562 182.957031 44.074219 183.105469 44.304688 C 183.257812 44.535156 183.371094 44.773438 183.445312 45.015625 C 183.523438 45.261719 183.5625 45.507812 183.5625 45.757812 Z M 183.5625 45.757812 " fill-opacity="0.6" fill-rule="nonzero"/><path fill="#5ab4a8" d="M 170.542969 49.566406 C 170.542969 49.773438 170.480469 49.972656 170.359375 50.160156 C 170.234375 50.351562 170.054688 50.523438 169.828125 50.667969 C 169.597656 50.816406 169.332031 50.925781 169.03125 51.007812 C 168.730469 51.085938 168.417969 51.125 168.09375 51.125 C 167.769531 51.125 167.453125 51.085938 167.15625 51.007812 C 166.855469 50.925781 166.589844 50.816406 166.359375 50.667969 C 166.128906 50.523438 165.953125 50.351562 165.828125 50.160156 C 165.703125 49.972656 165.640625 49.773438 165.640625 49.566406 C 165.640625 49.359375 165.703125 49.160156 165.828125 48.96875 C 165.953125 48.777344 166.128906 48.609375 166.359375 48.460938 C 166.589844 48.316406 166.855469 48.203125 167.15625 48.125 C 167.453125 48.042969 167.769531 48.003906 168.09375 48.003906 C 168.417969 48.003906 168.730469 48.042969 169.03125 48.125 C 169.332031 48.203125 169.597656 48.316406 169.828125 48.460938 C 170.054688 48.609375 170.234375 48.777344 170.359375 48.96875 C 170.480469 49.160156 170.542969 49.359375 170.542969 49.566406 Z M 170.542969 49.566406 " fill-opacity="0.298" fill-rule="nonzero"/></svg>